<svg width="409" height="48" viewBox="0 0 409 48" fill="none" xmlns="http://www.w3.org/2000/svg">
<path d="M33.245 13.3672H25.468C25.326 12.361 25.036 11.4673 24.598 10.6861C24.16 9.89299 23.5978 9.21828 22.9112 8.66193C22.2247 8.10559 21.4316 7.67945 20.532 7.38352C19.6442 7.08759 18.6795 6.93963 17.6378 6.93963C15.7557 6.93963 14.1162 7.4072 12.7195 8.34233C11.3227 9.26562 10.2396 10.6151 9.47017 12.3906C8.70076 14.1544 8.31605 16.2969 8.31605 18.8182C8.31605 21.4105 8.70076 23.5885 9.47017 25.3523C10.2514 27.116 11.3404 28.4477 12.7372 29.3473C14.134 30.2469 15.7498 30.6967 17.5845 30.6967C18.6143 30.6967 19.5672 30.5606 20.4432 30.2884C21.331 30.0161 22.1181 29.6196 22.8047 29.0987C23.4912 28.5661 24.0594 27.9209 24.5092 27.1634C24.9709 26.4058 25.2905 25.5417 25.468 24.571L33.245 24.6065C33.0438 26.2756 32.5407 27.8854 31.7358 29.4361C30.9427 30.9749 29.8714 32.3539 28.522 33.5732C27.1844 34.7805 25.5864 35.7393 23.728 36.4496C21.8814 37.148 19.7921 37.4972 17.4602 37.4972C14.2169 37.4972 11.3168 36.7633 8.75994 35.2955C6.21496 33.8277 4.20265 31.7029 2.72301 28.9212C1.25521 26.1394 0.521307 22.7718 0.521307 18.8182C0.521307 14.8527 1.26705 11.4792 2.75852 8.69744C4.25 5.91572 6.27415 3.79687 8.83097 2.34091C11.3878 0.873105 14.2642 0.139203 17.4602 0.139203C19.5672 0.139203 21.5204 0.435131 23.3196 1.02699C25.1307 1.61884 26.7346 2.48295 28.1314 3.61932C29.5282 4.74384 30.6645 6.12287 31.5405 7.75639C32.4283 9.38991 32.9964 11.2602 33.245 13.3672ZM46.3931 37.5149C44.6531 37.5149 43.1024 37.2131 41.7411 36.6094C40.3799 35.9938 39.3027 35.0883 38.5096 33.8928C37.7283 32.6854 37.3377 31.1821 37.3377 29.3828C37.3377 27.8677 37.6159 26.5952 38.1722 25.5653C38.7286 24.5355 39.4862 23.7069 40.445 23.0795C41.4038 22.4522 42.4928 21.9787 43.712 21.6591C44.9431 21.3395 46.2333 21.1146 47.5827 20.9844C49.1689 20.8187 50.4473 20.6648 51.418 20.5227C52.3886 20.3688 53.0929 20.1439 53.5309 19.848C53.9689 19.5521 54.1879 19.1141 54.1879 18.5341V18.4276C54.1879 17.303 53.8327 16.433 53.1225 15.8175C52.4241 15.2019 51.4298 14.8942 50.1396 14.8942C48.7783 14.8942 47.6952 15.196 46.8903 15.7997C46.0853 16.3916 45.5527 17.1373 45.2923 18.0369L38.2965 17.4688C38.6516 15.8116 39.35 14.3793 40.3917 13.1719C41.4334 11.9527 42.7769 11.0175 44.4222 10.3665C46.0794 9.7036 47.997 9.37216 50.1751 9.37216C51.6902 9.37216 53.1403 9.54972 54.5252 9.90483C55.922 10.2599 57.159 10.8104 58.2362 11.5561C59.3252 12.3018 60.1834 13.2607 60.8107 14.4325C61.4381 15.5926 61.7518 16.9834 61.7518 18.6051V37H54.5785V33.218H54.3654C53.9274 34.0703 53.3415 34.822 52.6076 35.473C51.8737 36.1122 50.9918 36.6153 49.962 36.9822C48.9322 37.3374 47.7425 37.5149 46.3931 37.5149ZM48.5593 32.2947C49.672 32.2947 50.6545 32.0758 51.5067 31.6378C52.359 31.188 53.0278 30.5843 53.5131 29.8267C53.9985 29.0691 54.2411 28.2109 54.2411 27.2521V24.358C54.0044 24.5118 53.6789 24.6539 53.2646 24.7841C52.8621 24.9025 52.4064 25.0149 51.8974 25.1214C51.3884 25.2161 50.8794 25.3049 50.3704 25.3878C49.8614 25.4588 49.3997 25.5239 48.9854 25.5831C48.0977 25.7133 47.3223 25.9205 46.6594 26.2045C45.9966 26.4886 45.4817 26.8733 45.1147 27.3587C44.7478 27.8321 44.5643 28.424 44.5643 29.1342C44.5643 30.1641 44.9371 30.9512 45.6829 31.4957C46.4405 32.0284 47.3993 32.2947 48.5593 32.2947ZM67.62 37V9.72727H74.8288V14.5391H75.1484C75.7166 12.9411 76.6636 11.6804 77.9893 10.7571C79.3151 9.83381 80.9013 9.37216 82.7479 9.37216C84.6181 9.37216 86.2102 9.83973 87.5241 10.7749C88.8381 11.6982 89.714 12.9529 90.152 14.5391H90.4361C90.9924 12.9766 91.9986 11.7277 93.4545 10.7926C94.9223 9.84564 96.6565 9.37216 98.657 9.37216C101.202 9.37216 103.268 10.183 104.854 11.8047C106.452 13.4145 107.251 15.6991 107.251 18.6584V37H99.7045V20.1499C99.7045 18.6347 99.3021 17.4983 98.4972 16.7408C97.6922 15.9832 96.6861 15.6044 95.4787 15.6044C94.1056 15.6044 93.0343 16.0424 92.2649 16.9183C91.4955 17.7824 91.1108 18.9247 91.1108 20.3452V37H83.7777V19.9901C83.7777 18.6525 83.393 17.5871 82.6236 16.794C81.866 16.0009 80.8658 15.6044 79.6229 15.6044C78.7824 15.6044 78.0249 15.8175 77.3501 16.2436C76.6873 16.6579 76.1605 17.2438 75.7699 18.0014C75.3793 18.7472 75.1839 19.6231 75.1839 20.6293V37H67.62ZM113.225 47.2273V9.72727H120.683V14.3082H121.02C121.352 13.5743 121.831 12.8286 122.458 12.071C123.098 11.3016 123.926 10.6624 124.944 10.1534C125.974 9.63258 127.252 9.37216 128.779 9.37216C130.768 9.37216 132.603 9.89299 134.284 10.9347C135.965 11.9645 137.308 13.5211 138.314 15.6044C139.32 17.6759 139.824 20.2741 139.824 23.3991C139.824 26.4413 139.332 29.0099 138.35 31.1051C137.379 33.1884 136.053 34.7687 134.373 35.8459C132.703 36.9112 130.833 37.4439 128.762 37.4439C127.294 37.4439 126.045 37.2012 125.015 36.7159C123.997 36.2306 123.163 35.621 122.512 34.8871C121.861 34.1413 121.364 33.3897 121.02 32.6321H120.789V47.2273H113.225ZM120.63 23.3636C120.63 24.9853 120.855 26.3999 121.304 27.6072C121.754 28.8146 122.405 29.7557 123.257 30.4304C124.11 31.0933 125.145 31.4247 126.365 31.4247C127.596 31.4247 128.637 31.0874 129.49 30.4126C130.342 29.7261 130.987 28.7791 131.425 27.5717C131.875 26.3525 132.1 24.9498 132.1 23.3636C132.1 21.7893 131.881 20.4044 131.443 19.2088C131.005 18.0133 130.36 17.0781 129.507 16.4034C128.655 15.7287 127.608 15.3913 126.365 15.3913C125.134 15.3913 124.092 15.7169 123.24 16.3679C122.399 17.0189 121.754 17.9422 121.304 19.1378C120.855 20.3333 120.63 21.742 120.63 23.3636ZM162.355 25.3878V9.72727H169.919V37H162.657V32.0462H162.373C161.758 33.6442 160.734 34.9285 159.301 35.8991C157.881 36.8698 156.147 37.3551 154.099 37.3551C152.276 37.3551 150.672 36.9408 149.287 36.1122C147.902 35.2836 146.819 34.1058 146.038 32.5788C145.269 31.0518 144.878 29.223 144.866 27.0923V9.72727H152.43V25.7429C152.442 27.3527 152.874 28.6252 153.726 29.5604C154.578 30.4955 155.721 30.9631 157.153 30.9631C158.065 30.9631 158.917 30.7559 159.71 30.3416C160.503 29.9155 161.142 29.2881 161.627 28.4595C162.125 27.6309 162.367 26.607 162.355 25.3878ZM198.661 17.5043L191.737 17.9304C191.618 17.3385 191.364 16.8059 190.973 16.3324C190.583 15.8471 190.068 15.4624 189.428 15.1783C188.801 14.8823 188.049 14.7344 187.173 14.7344C186.002 14.7344 185.013 14.983 184.208 15.4801C183.403 15.9654 183.001 16.6165 183.001 17.4332C183.001 18.0843 183.261 18.6347 183.782 19.0845C184.303 19.5343 185.197 19.8954 186.463 20.1676L191.399 21.1619C194.051 21.7064 196.028 22.5824 197.33 23.7898C198.632 24.9972 199.283 26.5833 199.283 28.5483C199.283 30.3357 198.756 31.9041 197.703 33.2536C196.661 34.603 195.229 35.6565 193.406 36.4141C191.595 37.1598 189.505 37.5327 187.138 37.5327C183.528 37.5327 180.651 36.781 178.509 35.2777C176.378 33.7625 175.129 31.7029 174.762 29.0987L182.202 28.7081C182.427 29.8089 182.971 30.6494 183.835 31.2294C184.7 31.7976 185.806 32.0817 187.156 32.0817C188.481 32.0817 189.547 31.8272 190.352 31.3182C191.169 30.7973 191.583 30.1286 191.595 29.3118C191.583 28.6252 191.293 28.063 190.725 27.625C190.156 27.1752 189.28 26.8319 188.097 26.5952L183.374 25.6541C180.71 25.1214 178.728 24.1982 177.426 22.8842C176.135 21.5703 175.49 19.8954 175.49 17.8594C175.49 16.1075 175.964 14.5982 176.911 13.3317C177.869 12.0651 179.213 11.0885 180.941 10.402C182.681 9.71544 184.717 9.37216 187.049 9.37216C190.494 9.37216 193.204 10.1001 195.181 11.5561C197.17 13.0121 198.33 14.9948 198.661 17.5043ZM236.272 13.3672H228.495C228.353 12.361 228.063 11.4673 227.625 10.6861C227.187 9.89299 226.625 9.21828 225.939 8.66193C225.252 8.10559 224.459 7.67945 223.559 7.38352C222.672 7.08759 221.707 6.93963 220.665 6.93963C218.783 6.93963 217.144 7.4072 215.747 8.34233C214.35 9.26562 213.267 10.6151 212.498 12.3906C211.728 14.1544 211.343 16.2969 211.343 18.8182C211.343 21.4105 211.728 23.5885 212.498 25.3523C213.279 27.116 214.368 28.4477 215.765 29.3473C217.161 30.2469 218.777 30.6967 220.612 30.6967C221.642 30.6967 222.595 30.5606 223.471 30.2884C224.358 30.0161 225.145 29.6196 225.832 29.0987C226.519 28.5661 227.087 27.9209 227.537 27.1634C227.998 26.4058 228.318 25.5417 228.495 24.571L236.272 24.6065C236.071 26.2756 235.568 27.8854 234.763 29.4361C233.97 30.9749 232.899 32.3539 231.549 33.5732C230.212 34.7805 228.614 35.7393 226.755 36.4496C224.909 37.148 222.819 37.4972 220.488 37.4972C217.244 37.4972 214.344 36.7633 211.787 35.2955C209.242 33.8277 207.23 31.7029 205.75 28.9212C204.283 26.1394 203.549 22.7718 203.549 18.8182C203.549 14.8527 204.294 11.4792 205.786 8.69744C207.277 5.91572 209.301 3.79687 211.858 2.34091C214.415 0.873105 217.292 0.139203 220.488 0.139203C222.595 0.139203 224.548 0.435131 226.347 1.02699C228.158 1.61884 229.762 2.48295 231.159 3.61932C232.556 4.74384 233.692 6.12287 234.568 7.75639C235.456 9.38991 236.024 11.2602 236.272 13.3672ZM253.966 37.5327C251.208 37.5327 248.823 36.9467 246.81 35.7749C244.81 34.5911 243.265 32.9458 242.176 30.8388C241.087 28.7199 240.543 26.2637 240.543 23.4702C240.543 20.6529 241.087 18.1908 242.176 16.0838C243.265 13.965 244.81 12.3196 246.81 11.1477C248.823 9.96401 251.208 9.37216 253.966 9.37216C256.724 9.37216 259.103 9.96401 261.104 11.1477C263.116 12.3196 264.667 13.965 265.756 16.0838C266.845 18.1908 267.389 20.6529 267.389 23.4702C267.389 26.2637 266.845 28.7199 265.756 30.8388C264.667 32.9458 263.116 34.5911 261.104 35.7749C259.103 36.9467 256.724 37.5327 253.966 37.5327ZM254.001 31.6733C255.256 31.6733 256.304 31.3182 257.144 30.608C257.985 29.8859 258.618 28.9034 259.044 27.6605C259.482 26.4176 259.701 25.0031 259.701 23.4169C259.701 21.8307 259.482 20.4162 259.044 19.1733C258.618 17.9304 257.985 16.9479 257.144 16.2259C256.304 15.5038 255.256 15.1428 254.001 15.1428C252.735 15.1428 251.67 15.5038 250.805 16.2259C249.953 16.9479 249.308 17.9304 248.87 19.1733C248.444 20.4162 248.231 21.8307 248.231 23.4169C248.231 25.0031 248.444 26.4176 248.87 27.6605C249.308 28.9034 249.953 29.8859 250.805 30.608C251.67 31.3182 252.735 31.6733 254.001 31.6733ZM279.871 21.233V37H272.308V9.72727H279.516V14.5391H279.836C280.44 12.9529 281.452 11.6982 282.872 10.7749C284.293 9.83973 286.015 9.37216 288.039 9.37216C289.933 9.37216 291.584 9.78646 292.993 10.6151C294.402 11.4437 295.496 12.6274 296.278 14.1662C297.059 15.6932 297.45 17.5161 297.45 19.6349V37H289.886V20.9844C289.897 19.3153 289.471 18.0133 288.607 17.0781C287.743 16.1312 286.554 15.6577 285.038 15.6577C284.02 15.6577 283.121 15.8767 282.339 16.3146C281.57 16.7526 280.966 17.3918 280.528 18.2322C280.102 19.0608 279.883 20.0611 279.871 21.233ZM310.975 21.233V37H303.411V9.72727H310.62V14.5391H310.939C311.543 12.9529 312.555 11.6982 313.976 10.7749C315.396 9.83973 317.118 9.37216 319.143 9.37216C321.037 9.37216 322.688 9.78646 324.096 10.6151C325.505 11.4437 326.6 12.6274 327.381 14.1662C328.162 15.6932 328.553 17.5161 328.553 19.6349V37H320.989V20.9844C321.001 19.3153 320.575 18.0133 319.711 17.0781C318.847 16.1312 317.657 15.6577 316.142 15.6577C315.124 15.6577 314.224 15.8767 313.443 16.3146C312.674 16.7526 312.07 17.3918 311.632 18.2322C311.206 19.0608 310.987 20.0611 310.975 21.233ZM346.944 37.5327C344.138 37.5327 341.723 36.9645 339.699 35.8281C337.687 34.6799 336.136 33.0582 335.047 30.9631C333.958 28.8561 333.414 26.3643 333.414 23.4879C333.414 20.6825 333.958 18.2204 335.047 16.1016C336.136 13.9827 337.669 12.3314 339.646 11.1477C341.635 9.96401 343.967 9.37216 346.642 9.37216C348.441 9.37216 350.116 9.66217 351.667 10.2422C353.229 10.8104 354.59 11.6686 355.75 12.8168C356.922 13.965 357.834 15.4091 358.485 17.1491C359.136 18.8774 359.461 20.9015 359.461 23.2216V25.299H336.432V20.6115H352.341C352.341 19.5225 352.105 18.5578 351.631 17.7173C351.158 16.8769 350.501 16.2199 349.66 15.7464C348.832 15.2611 347.867 15.0185 346.766 15.0185C345.618 15.0185 344.6 15.2848 343.712 15.8175C342.836 16.3383 342.15 17.0426 341.652 17.9304C341.155 18.8063 340.901 19.7829 340.889 20.8601V25.3168C340.889 26.6662 341.137 27.8321 341.635 28.8146C342.144 29.7971 342.86 30.5547 343.783 31.0874C344.706 31.62 345.801 31.8864 347.068 31.8864C347.908 31.8864 348.678 31.768 349.376 31.5312C350.074 31.2945 350.672 30.9394 351.169 30.4659C351.667 29.9924 352.045 29.4124 352.306 28.7259L359.301 29.1875C358.946 30.8684 358.218 32.3362 357.118 33.5909C356.029 34.8338 354.62 35.8045 352.892 36.5028C351.175 37.1894 349.193 37.5327 346.944 37.5327ZM376.72 37.5327C373.926 37.5327 371.523 36.9408 369.511 35.7571C367.511 34.5616 365.972 32.9044 364.895 30.7855C363.829 28.6667 363.297 26.2282 363.297 23.4702C363.297 20.6766 363.835 18.2263 364.912 16.1193C366.001 14.0005 367.546 12.3492 369.547 11.1655C371.547 9.96993 373.926 9.37216 376.684 9.37216C379.064 9.37216 381.147 9.80421 382.934 10.6683C384.722 11.5324 386.136 12.7457 387.178 14.3082C388.22 15.8707 388.794 17.7055 388.9 19.8125H381.762C381.561 18.4512 381.029 17.3563 380.164 16.5277C379.312 15.6873 378.194 15.267 376.809 15.267C375.637 15.267 374.613 15.5866 373.737 16.2259C372.873 16.8532 372.198 17.7706 371.713 18.978C371.227 20.1854 370.985 21.6473 370.985 23.3636C370.985 25.1037 371.221 26.5833 371.695 27.8026C372.18 29.0218 372.861 29.951 373.737 30.5902C374.613 31.2294 375.637 31.549 376.809 31.549C377.673 31.549 378.448 31.3714 379.135 31.0163C379.833 30.6612 380.407 30.1463 380.857 29.4716C381.319 28.785 381.62 27.9624 381.762 27.0036H388.9C388.782 29.0869 388.214 30.9216 387.196 32.5078C386.19 34.0821 384.799 35.3132 383.023 36.201C381.248 37.0888 379.146 37.5327 376.72 37.5327ZM408.249 9.72727V15.4091H391.825V9.72727H408.249ZM395.554 3.19318H403.118V28.6193C403.118 29.3177 403.225 29.8622 403.438 30.2528C403.651 30.6316 403.947 30.898 404.325 31.0518C404.716 31.2057 405.166 31.2827 405.675 31.2827C406.03 31.2827 406.385 31.2531 406.74 31.1939C407.095 31.1229 407.368 31.0696 407.557 31.0341L408.747 36.6626C408.368 36.781 407.835 36.9171 407.149 37.071C406.462 37.2367 405.628 37.3374 404.645 37.3729C402.822 37.4439 401.224 37.2012 399.851 36.6449C398.49 36.0885 397.43 35.2244 396.673 34.0526C395.915 32.8807 395.542 31.401 395.554 29.6136V3.19318Z" fill="#6C63FF"/>
</svg>
