<svg width="109" height="49" viewBox="0 0 109 49" fill="none" xmlns="http://www.w3.org/2000/svg">
<path d="M22.2246 37.5664C24.0801 39.793 26.9902 40.9062 30.9551 40.9062C34.666 40.9062 38.5137 40.2812 42.498 39.0312C43.8066 38.6211 44.7734 38.416 45.3984 38.416C46.5312 38.416 47.0977 38.7383 47.0977 39.3828C47.0977 40.3203 46.3555 41.3262 44.8711 42.4004C43.3867 43.4551 41.5117 44.4023 39.2461 45.2422C36.9805 46.082 34.4121 46.7754 31.541 47.3223C28.6895 47.8887 25.9746 48.1719 23.3965 48.1719C18.8262 48.1719 14.8027 47.459 11.3262 46.0332C7.84961 44.6074 5.1543 42.5762 3.24023 39.9395C1.32617 37.2832 0.369141 34.3926 0.369141 31.2676C0.369141 28.123 0.896484 25.2227 1.95117 22.5664C3.00586 19.8906 4.43164 17.4785 6.22852 15.3301C8.04492 13.1816 10.1543 11.1895 12.5566 9.35352C14.9785 7.51758 17.5273 5.98438 20.2031 4.75391C25.9258 2.13672 31.4141 0.828125 36.668 0.828125C41.9219 0.828125 46.0039 1.91211 48.9141 4.08008C51.8242 6.22852 53.2793 8.86523 53.2793 11.9902C53.2793 15.3887 52.2734 18.3672 50.2617 20.9258C49.3047 22.1758 48.0254 23.1719 46.4238 23.9141C44.8418 24.6562 43.0547 25.0273 41.0625 25.0273C39.7344 25.0273 38.6016 24.8418 37.6641 24.4707C35.8867 23.7676 34.998 22.7617 34.998 21.4531C34.998 21.0039 35.5059 19.7344 36.5215 17.6445C37.5566 15.5547 38.5918 13.4062 39.627 11.1992C40.6621 8.97266 41.1797 7.44922 41.1797 6.62891C41.1797 5.78906 40.8281 5.21289 40.125 4.90039C39.4219 4.58789 38.416 4.43164 37.1074 4.43164C35.8184 4.43164 34.3535 4.92969 32.7129 5.92578C31.0723 6.90234 29.4902 8.25 27.9668 9.96875C26.4434 11.668 25.0469 13.5625 23.7773 15.6523C22.5078 17.7422 21.4922 20.0078 20.7305 22.4492C19.9688 24.8711 19.5879 27.0488 19.5879 28.9824C19.5879 30.916 19.8027 32.5664 20.2324 33.9336C20.6816 35.3008 21.3457 36.5117 22.2246 37.5664ZM77.2441 37.5664C79.0996 39.793 82.0098 40.9062 85.9746 40.9062C89.6855 40.9062 93.5332 40.2812 97.5176 39.0312C98.8262 38.6211 99.793 38.416 100.418 38.416C101.551 38.416 102.117 38.7383 102.117 39.3828C102.117 40.3203 101.375 41.3262 99.8906 42.4004C98.4062 43.4551 96.5312 44.4023 94.2656 45.2422C92 46.082 89.4316 46.7754 86.5605 47.3223C83.709 47.8887 80.9941 48.1719 78.416 48.1719C73.8457 48.1719 69.8223 47.459 66.3457 46.0332C62.8691 44.6074 60.1738 42.5762 58.2598 39.9395C56.3457 37.2832 55.3887 34.3926 55.3887 31.2676C55.3887 28.123 55.916 25.2227 56.9707 22.5664C58.0254 19.8906 59.4512 17.4785 61.248 15.3301C63.0645 13.1816 65.1738 11.1895 67.5762 9.35352C69.998 7.51758 72.5469 5.98438 75.2227 4.75391C80.9453 2.13672 86.4336 0.828125 91.6875 0.828125C96.9414 0.828125 101.023 1.91211 103.934 4.08008C106.844 6.22852 108.299 8.86523 108.299 11.9902C108.299 15.3887 107.293 18.3672 105.281 20.9258C104.324 22.1758 103.045 23.1719 101.443 23.9141C99.8613 24.6562 98.0742 25.0273 96.082 25.0273C94.7539 25.0273 93.6211 24.8418 92.6836 24.4707C90.9062 23.7676 90.0176 22.7617 90.0176 21.4531C90.0176 21.0039 90.5254 19.7344 91.541 17.6445C92.5762 15.5547 93.6113 13.4062 94.6465 11.1992C95.6816 8.97266 96.1992 7.44922 96.1992 6.62891C96.1992 5.78906 95.8477 5.21289 95.1445 4.90039C94.4414 4.58789 93.4355 4.43164 92.127 4.43164C90.8379 4.43164 89.373 4.92969 87.7324 5.92578C86.0918 6.90234 84.5098 8.25 82.9863 9.96875C81.4629 11.668 80.0664 13.5625 78.7969 15.6523C77.5273 17.7422 76.5117 20.0078 75.75 22.4492C74.9883 24.8711 74.6074 27.0488 74.6074 28.9824C74.6074 30.916 74.8223 32.5664 75.252 33.9336C75.7012 35.3008 76.3652 36.5117 77.2441 37.5664Z" fill="#6C63FF"/>
</svg>
